<mxfile host="app.diagrams.net" modified="2023-09-20T11:13:11.989Z" agent="Mozilla/5.0 (X11; Linux x86_64; rv:109.0) Gecko/20100101 Firefox/111.0" etag="rtYMU7Ty0Cev7DNEfGW4" version="21.7.5" type="device">
  <diagram name="Página-1" id="skrdO2WWhqESO4m4J6XE">
    <mxGraphModel dx="954" dy="569" grid="1" gridSize="10" guides="1" tooltips="1" connect="1" arrows="1" fold="1" page="1" pageScale="1" pageWidth="827" pageHeight="1169" math="0" shadow="0">
      <root>
        <mxCell id="0" />
        <mxCell id="1" parent="0" />
        <mxCell id="yUwpfhk6JBO9svvZn03B-6" value="Administrador&lt;span style=&quot;white-space: pre;&quot;&gt;&#x9;&lt;/span&gt;" style="swimlane;whiteSpace=wrap;html=1;" vertex="1" parent="1">
          <mxGeometry x="160" y="120" width="200" height="540" as="geometry" />
        </mxCell>
        <mxCell id="yUwpfhk6JBO9svvZn03B-20" style="edgeStyle=orthogonalEdgeStyle;rounded=0;orthogonalLoop=1;jettySize=auto;html=1;exitX=0.5;exitY=1;exitDx=0;exitDy=0;entryX=0.5;entryY=0;entryDx=0;entryDy=0;" edge="1" parent="yUwpfhk6JBO9svvZn03B-6" source="yUwpfhk6JBO9svvZn03B-14" target="yUwpfhk6JBO9svvZn03B-19">
          <mxGeometry relative="1" as="geometry" />
        </mxCell>
        <mxCell id="yUwpfhk6JBO9svvZn03B-14" value="Verificar disponibilidade" style="rounded=1;whiteSpace=wrap;html=1;" vertex="1" parent="yUwpfhk6JBO9svvZn03B-6">
          <mxGeometry x="30" y="180" width="120" height="45" as="geometry" />
        </mxCell>
        <mxCell id="yUwpfhk6JBO9svvZn03B-23" style="edgeStyle=orthogonalEdgeStyle;rounded=0;orthogonalLoop=1;jettySize=auto;html=1;exitX=0.5;exitY=1;exitDx=0;exitDy=0;entryX=0.5;entryY=0;entryDx=0;entryDy=0;" edge="1" parent="yUwpfhk6JBO9svvZn03B-6" source="yUwpfhk6JBO9svvZn03B-19" target="yUwpfhk6JBO9svvZn03B-22">
          <mxGeometry relative="1" as="geometry" />
        </mxCell>
        <mxCell id="yUwpfhk6JBO9svvZn03B-19" value="&lt;div&gt;Reservar espaço&lt;br&gt;&lt;/div&gt;" style="rounded=1;whiteSpace=wrap;html=1;" vertex="1" parent="yUwpfhk6JBO9svvZn03B-6">
          <mxGeometry x="35" y="260" width="115" height="50" as="geometry" />
        </mxCell>
        <mxCell id="yUwpfhk6JBO9svvZn03B-22" value="" style="rhombus;whiteSpace=wrap;html=1;" vertex="1" parent="yUwpfhk6JBO9svvZn03B-6">
          <mxGeometry x="78.75" y="350" width="27.5" height="30" as="geometry" />
        </mxCell>
        <mxCell id="yUwpfhk6JBO9svvZn03B-12" value="Visualizar disponibilidade" style="rounded=1;whiteSpace=wrap;html=1;" vertex="1" parent="yUwpfhk6JBO9svvZn03B-6">
          <mxGeometry x="42.5" y="90" width="115" height="30" as="geometry" />
        </mxCell>
        <mxCell id="yUwpfhk6JBO9svvZn03B-7" value="Cliente" style="swimlane;whiteSpace=wrap;html=1;startSize=23;" vertex="1" parent="1">
          <mxGeometry x="360" y="120" width="200" height="540" as="geometry" />
        </mxCell>
        <mxCell id="yUwpfhk6JBO9svvZn03B-11" value="" style="edgeStyle=orthogonalEdgeStyle;rounded=0;orthogonalLoop=1;jettySize=auto;html=1;" edge="1" parent="yUwpfhk6JBO9svvZn03B-7" source="yUwpfhk6JBO9svvZn03B-8" target="yUwpfhk6JBO9svvZn03B-10">
          <mxGeometry relative="1" as="geometry" />
        </mxCell>
        <mxCell id="yUwpfhk6JBO9svvZn03B-8" value="" style="ellipse;whiteSpace=wrap;html=1;aspect=fixed;fillColor=#000000;" vertex="1" parent="yUwpfhk6JBO9svvZn03B-7">
          <mxGeometry x="85" y="40" width="30" height="30" as="geometry" />
        </mxCell>
        <mxCell id="yUwpfhk6JBO9svvZn03B-10" value="Consulta espaços disponíveis" style="rounded=1;whiteSpace=wrap;html=1;" vertex="1" parent="yUwpfhk6JBO9svvZn03B-7">
          <mxGeometry x="45" y="90" width="110" height="30" as="geometry" />
        </mxCell>
        <mxCell id="yUwpfhk6JBO9svvZn03B-47" style="edgeStyle=orthogonalEdgeStyle;rounded=0;orthogonalLoop=1;jettySize=auto;html=1;exitX=0.5;exitY=1;exitDx=0;exitDy=0;entryX=0.5;entryY=0;entryDx=0;entryDy=0;" edge="1" parent="yUwpfhk6JBO9svvZn03B-7" source="yUwpfhk6JBO9svvZn03B-24" target="yUwpfhk6JBO9svvZn03B-31">
          <mxGeometry relative="1" as="geometry">
            <Array as="points">
              <mxPoint x="105" y="420" />
            </Array>
          </mxGeometry>
        </mxCell>
        <mxCell id="yUwpfhk6JBO9svvZn03B-24" value="Agendamento concluído" style="rounded=1;whiteSpace=wrap;html=1;" vertex="1" parent="yUwpfhk6JBO9svvZn03B-7">
          <mxGeometry x="49" y="380" width="106" height="40" as="geometry" />
        </mxCell>
        <mxCell id="yUwpfhk6JBO9svvZn03B-31" value="" style="ellipse;whiteSpace=wrap;html=1;aspect=fixed;" vertex="1" parent="yUwpfhk6JBO9svvZn03B-7">
          <mxGeometry x="85" y="470" width="40" height="40" as="geometry" />
        </mxCell>
        <mxCell id="yUwpfhk6JBO9svvZn03B-30" value="" style="ellipse;whiteSpace=wrap;html=1;aspect=fixed;fillColor=#000000;" vertex="1" parent="yUwpfhk6JBO9svvZn03B-7">
          <mxGeometry x="90" y="475" width="30" height="30" as="geometry" />
        </mxCell>
        <mxCell id="yUwpfhk6JBO9svvZn03B-39" value="Selecionar espaço, data e horário" style="rounded=1;whiteSpace=wrap;html=1;" vertex="1" parent="yUwpfhk6JBO9svvZn03B-7">
          <mxGeometry x="47" y="170" width="106" height="40" as="geometry" />
        </mxCell>
        <mxCell id="yUwpfhk6JBO9svvZn03B-26" style="edgeStyle=orthogonalEdgeStyle;rounded=0;orthogonalLoop=1;jettySize=auto;html=1;exitX=0.5;exitY=1;exitDx=0;exitDy=0;entryX=0;entryY=0.5;entryDx=0;entryDy=0;" edge="1" parent="1" source="yUwpfhk6JBO9svvZn03B-22" target="yUwpfhk6JBO9svvZn03B-24">
          <mxGeometry relative="1" as="geometry">
            <Array as="points">
              <mxPoint x="253" y="520" />
            </Array>
          </mxGeometry>
        </mxCell>
        <mxCell id="yUwpfhk6JBO9svvZn03B-38" style="edgeStyle=orthogonalEdgeStyle;rounded=0;orthogonalLoop=1;jettySize=auto;html=1;exitX=0;exitY=0.5;exitDx=0;exitDy=0;entryX=1;entryY=0.5;entryDx=0;entryDy=0;" edge="1" parent="1" source="yUwpfhk6JBO9svvZn03B-10" target="yUwpfhk6JBO9svvZn03B-12">
          <mxGeometry relative="1" as="geometry" />
        </mxCell>
        <mxCell id="yUwpfhk6JBO9svvZn03B-42" style="edgeStyle=orthogonalEdgeStyle;rounded=0;orthogonalLoop=1;jettySize=auto;html=1;entryX=0.5;entryY=0;entryDx=0;entryDy=0;" edge="1" parent="1" source="yUwpfhk6JBO9svvZn03B-12" target="yUwpfhk6JBO9svvZn03B-39">
          <mxGeometry relative="1" as="geometry">
            <Array as="points">
              <mxPoint x="260" y="270" />
              <mxPoint x="460" y="270" />
            </Array>
          </mxGeometry>
        </mxCell>
        <mxCell id="yUwpfhk6JBO9svvZn03B-43" style="edgeStyle=orthogonalEdgeStyle;rounded=0;orthogonalLoop=1;jettySize=auto;html=1;entryX=1;entryY=0.5;entryDx=0;entryDy=0;" edge="1" parent="1" source="yUwpfhk6JBO9svvZn03B-39" target="yUwpfhk6JBO9svvZn03B-14">
          <mxGeometry relative="1" as="geometry">
            <Array as="points">
              <mxPoint x="359" y="323" />
            </Array>
          </mxGeometry>
        </mxCell>
      </root>
    </mxGraphModel>
  </diagram>
</mxfile>
